<?xml version="1.0" standalone="no"?><!DOCTYPE svg PUBLIC "-//W3C//DTD SVG 1.1//EN" "http://www.w3.org/Graphics/SVG/1.1/DTD/svg11.dtd"><svg t="1730772120913" class="icon" viewBox="0 0 1040 1024" version="1.1" xmlns="http://www.w3.org/2000/svg" p-id="1579" xmlns:xlink="http://www.w3.org/1999/xlink" width="203.125" height="200"><path d="M996.856409 1023.761542h-270.590674a43.101356 43.101356 0 0 1-43.101356-43.101357V43.101356A43.101356 43.101356 0 0 1 726.265735 0h270.590674a43.160971 43.160971 0 0 1 43.101356 43.101356V980.660185a43.160971 43.160971 0 0 1-43.101356 43.101357zM741.407844 965.756535h240.306456V58.243465h-240.306456z m-474.055307 57.051173a41.730221 41.730221 0 0 1-17.526693-3.874949L24.423038 914.964895a41.730221 41.730221 0 0 1-20.507422-55.620423L363.689732 78.452815a41.730221 41.730221 0 0 1 38.09373-24.382372 40.537929 40.537929 0 0 1 17.526693 3.815334l225.402806 103.789021a41.730221 41.730221 0 0 1 20.507423 55.620422l-359.595273 780.951272a42.028294 42.028294 0 0 1-38.09373 24.382372z m-203.762706-153.865285l195.77435 90.137277 345.764685-751.143972-195.535891-90.375735z" fill="#1296db" p-id="1580"></path><path d="M997.154482 1023.701927h-270.590674a43.101356 43.101356 0 0 1-43.101356-43.101356V42.982127a29.091925 29.091925 0 0 1 58.18385 0V965.756535h255.50818a29.15154 29.15154 0 0 1 0 58.243465z" fill="#1296db" p-id="1581"></path></svg>